<svg xmlns="http://www.w3.org/2000/svg" viewBox="0 0 1200 630" fill="none">
  <!-- Background gradient -->
  <defs>
    <linearGradient id="bg" x1="0%" y1="0%" x2="100%" y2="100%">
      <stop offset="0%" style="stop-color:#8B4513;stop-opacity:1" />
      <stop offset="100%" style="stop-color:#654321;stop-opacity:1" />
    </linearGradient>
  </defs>
  
  <!-- Background -->
  <rect width="1200" height="630" fill="url(#bg)"/>
  
  <!-- Coffee cup -->
  <g transform="translate(400, 200)">
    <path d="M100 100h300c50 0 90 40 90 90v60c0 50-40 90-90 90H100c-50 0-90-40-90-90v-60c0-50 40-90 90-90z" fill="#F5F5DC" stroke="#8B4513" stroke-width="8"/>
    <path d="M400 130c0-25 20-45 45-45s45 20 45 45v120c0 25-20 45-45 45s-45-20-45-45V130z" fill="#F5F5DC" stroke="#8B4513" stroke-width="8"/>
    <ellipse cx="250" cy="160" rx="120" ry="20" fill="#654321"/>
  </g>
  
  <!-- Text -->
  <text x="600" y="500" text-anchor="middle" fill="#F5F5DC" font-family="Georgia, serif" font-size="48" font-weight="bold">
    Dream Latte Cafe
  </text>
  <text x="600" y="540" text-anchor="middle" fill="#D2B48C" font-family="Georgia, serif" font-size="24">
    Crafted with Passion, Brewed with Stories
  </text>
  
  <!-- Decorative elements -->
  <circle cx="200" cy="150" r="20" fill="#D2B48C" opacity="0.6"/>
  <circle cx="1000" cy="480" r="15" fill="#D2B48C" opacity="0.6"/>
  <circle cx="150" cy="480" r="12" fill="#D2B48C" opacity="0.6"/>
</svg>
